#!OML:ASF F:\VICON\USERDATA\INSTALL\Justin_Nancy\Justin_Nancy.ASF
:FULLY-SPECIFIED
:DEGREES
1
root 1.70298 17.7026 -27.9063 0.0479344 -3.86934 2.93902
lowerback 6.11924 1.43308 -3.16923
upperback 0.759901 1.72811 1.11416
thorax -2.77495 0.899932 2.78332
lowerneck -14.7462 -3.31425 -8.55358
upperneck 17.5667 -3.51079 4.70555
head 8.11484 -1.77656 2.58104
rclavicle 1.78906e-015 7.95139e-016
rhumerus -29.4019 -13.2393 -79.6845
rradius 30.2478
rwrist 8.91932
rhand -13.7378 11.0845
rfingers 7.12502
rthumb 12.3819 -18.5288
lclavicle 1.78906e-015 7.95139e-016
lhumerus -31.0155 13.2772 83.1392
lradius 21.2414
lwrist -15.1003
lhand -13.7718 30.7924
lfingers 7.12502
lthumb 12.3491 60.4077
rfemur -11.5899 -0.890161 18.0074
rtibia 63.7983
rfoot 7.7371 -5.24786
rtoes 0.474
lfemur -13.0977 1.00099 -25.8983
ltibia 21.3792
lfoot -6.09713 -0.54748
ltoes 5.57718
2
root 1.71099 17.7054 -27.7673 -0.0708856 -3.85731 3.0574
lowerback 6.3648 1.37901 -3.20993
upperback 0.794998 1.64438 1.06703
thorax -2.86968 0.859363 2.76026
lowerneck -15.3575 -3.35908 -8.59845
upperneck 18.7813 -3.52941 4.66775
head 8.63572 -1.79779 2.57795
rclavicle 9.49197e-015 1.11319e-014
rhumerus -29.4276 -14.0389 -79.3943
rradius 29.1277
rwrist 10.5902
rhand -14.8706 13.2361
rfingers 7.12502
rthumb 11.2896 -16.44
lclavicle 9.49197e-015 1.11319e-014
lhumerus -30.7575 12.8452 83.2232
lradius 21.6022
lwrist -15.0507
lhand -13.5315 31.0892
lfingers 7.12502
lthumb 12.5808 60.6904
rfemur -12.8812 -1.27582 17.7523
rtibia 64.9557
rfoot 6.78144 -6.33194
rtoes 1.343
lfemur -12.3969 0.731746 -26.0865
ltibia 21.2704
lfoot -6.47948 -0.140014
ltoes 6.20748
3
root 1.71827 17.7073 -27.6327 -0.0796376 -3.70151 3.01048
lowerback 6.48436 1.19292 -3.07706
upperback 0.740376 1.40269 1.0944
thorax -2.97294 0.740106 2.73329
lowerneck -15.0892 -3.08789 -8.48009
upperneck 17.9288 -3.19269 4.69611
head 8.27264 -1.62181 2.60391
rclavicle -1.03368e-014 -1.27222e-014
rhumerus -29.6187 -14.2336 -79.3103
rradius 28.6953
rwrist 11.1952
rhand -15.21 13.4847
rfingers 7.12502
rthumb 10.9622 -16.2091
lclavicle -1.03368e-014 -1.27222e-014
lhumerus -30.5677 12.7355 83.1906
lradius 21.6559
lwrist -14.7649
lhand -13.8931 29.4685
lfingers 7.12502
lthumb 12.2322 59.0908
rfemur -14.1875 -1.7775 17.7284
rtibia 65.8611
rfoot 5.81675 -7.21935
rtoes 1.84809
lfemur -12.045 0.439043 -26.1019
ltibia 21.5854
lfoot -7.03456 0.138827
ltoes 6.39364
4
root 1.72619 17.6982 -27.5016 -0.044653 -3.5258 3.00132
lowerback 6.43073 0.974786 -3.05518
upperback 0.708579 1.11761 1.17163
thorax -2.95663 0.598608 2.82782
lowerneck -14.8533 -2.72209 -8.59859
upperneck 17.781 -2.73364 4.96749
head 8.15238 -1.38703 2.76976
rclavicle 1.94809e-014 -7.95139e-016
rhumerus -29.8679 -13.4968 -79.6002
rradius 29.5631
rwrist 9.70075
rhand -14.1952 9.80268
rfingers 7.12502
rthumb 11.9409 -19.8368
lclavicle 1.94809e-014 -7.95139e-016
lhumerus -30.3444 12.9342 83.125
lradius 21.8136
lwrist -15.3691
lhand -5.47653 -96.6263
lfingers 7.12502
lthumb 20.3355 234.418
rfemur -15.5407 -2.30658 17.6779
rtibia 66.6974
rfoot 4.85986 -7.814
rtoes 1.14643
lfemur -11.7671 0.289841 -26.1867
ltibia 21.8956
lfoot -7.60611 0.281149
ltoes 5.33051
5
root 1.73522 17.6813 -27.3601 -0.138352 -3.59208 2.99925
lowerback 6.41926 0.887908 -3.03273
upperback 0.76461 1.00632 1.24236
thorax -2.88509 0.541326 2.89912
lowerneck -14.6982 -2.74997 -8.47492
upperneck 17.5179 -2.74266 4.64194
head 8.03211 -1.41387 2.63637
rclavicle 3.97569e-016 1.59028e-015
rhumerus -30.189 -13.7854 -79.3334
rradius 29.1628
rwrist 10.8291
rhand -14.5695 12.0964
rfingers 7.12502
rthumb 11.58 -17.5637
lclavicle 3.97569e-016 1.59028e-015
lhumerus -30.0719 13.0739 83.0578
lradius 21.6942
lwrist -15.4415
lhand -4.46106 -90.1918
lfingers 7.12502
lthumb 21.3112 240.96
rfemur -16.7099 -2.5568 17.6142
rtibia 67.3728
rfoot 3.78792 -8.38903
rtoes 2.576
lfemur -11.3704 0.0807189 -26.2684
ltibia 22.3479
lfoot -8.25727 0.691224
ltoes 5.02819
6
root 1.74081 17.6631 -27.2186 -0.283873 -3.79735 3.0585
lowerback 6.63713 0.874546 -3.18335
upperback 0.642785 0.973979 1.34575
thorax -3.13516 0.533794 3.09162
lowerneck -14.3299 -2.76844 -8.44832
upperneck 17.6192 -2.74131 4.30379
head 7.99639 -1.45012 2.52116
rclavicle 1.44616e-014 7.95139e-015
rhumerus -30.6938 -13.7224 -79.1628
rradius 29.2861
rwrist 10.7095
rhand -13.9772 9.20736
rfingers 7.12502
rthumb 12.1511 -20.4198
lclavicle 1.44616e-014 7.95139e-015
lhumerus -30.2341 12.4237 83.3621
lradius 21.6749
lwrist -13.6489
lhand -10.4129 88.3561
lfingers 7.12502
lthumb 15.586 242.252
rfemur -17.8468 -2.64748 17.4938
rtibia 67.8989
rfoot 2.69402 -8.78564
rtoes 4.81968
lfemur -10.9375 0.0594874 -26.4022
ltibia 22.8182
lfoot -8.84696 1.09881
ltoes 4.78955
7
root 1.74508 17.6439 -27.0869 -0.379777 -3.79313 3.22642
lowerback 6.78431 0.811223 -3.38789
upperback 0.608845 0.870959 1.38381
thorax -3.24848 0.488139 3.25524
lowerneck -14.1981 -2.69553 -8.41371
upperneck 17.7059 -2.63479 4.16673
head 7.9925 -1.41326 2.483
rclavicle -1.95803e-014 -1.35174e-014
rhumerus -30.8484 -14.0101 -79.0022
rradius 29.2226
rwrist 10.6602
rhand -12.7349 3.99241
rfingers 7.12502
rthumb 13.3488 -25.56
lclavicle -1.95803e-014 -1.35174e-014
lhumerus -30.0895 11.9971 83.5536
lradius 21.6249
lwrist -12.9227
lhand -16.6136 87.2234
lfingers 7.12502
lthumb 9.60819 243.016
rfemur -18.9942 -2.98907 17.2752
rtibia 68.2406
rfoot 1.5131 -8.813
rtoes 5.26045
lfemur -10.6046 -0.00462044 -26.6577
ltibia 23.2922
lfoot -9.53155 1.36261
ltoes 4.47707
8
root 1.74884 17.6282 -26.957 -0.450931 -3.5837 3.33924
lowerback 6.92755 0.64252 -3.51089
upperback 0.658531 0.634393 1.4365
thorax -3.2597 0.371866 3.40202
lowerneck -14.5424 -2.64338 -8.45145
upperneck 18.056 -2.51229 4.08317
head 8.16251 -1.36739 2.47619
rclavicle 3.62782e-015 1.59028e-014
rhumerus -30.741 -14.6092 -78.6943
rradius 28.7223
rwrist 10.8978
rhand -12.4422 4.75485
rfingers 7.12502
rthumb 13.6308 -24.7789
lclavicle 3.62782e-015 1.59028e-014
lhumerus -29.5433 12.3956 83.3903
lradius 21.718
lwrist -14.7766
lhand -16.4392 61.543
lfingers 7.12502
lthumb 9.77644 268.704
rfemur -20.096 -3.45227 17.1543
rtibia 68.3961
rfoot 0.167505 -8.69416
rtoes 4.72823
lfemur -10.3091 -0.177843 -26.8519
ltibia 23.7332
lfoot -10.2327 1.49962
ltoes 3.84261
9
root 1.75413 17.6113 -26.8244 -0.57508 -3.29339 3.2189
lowerback 7.19101 0.391444 -3.38334
upperback 0.647267 0.306108 1.56579
thorax -3.39083 0.21045 3.49686
lowerneck -14.5005 -2.65041 -8.5326
upperneck 18.2648 -2.47704 3.92076
head 8.22282 -1.3762 2.44073
rclavicle 6.70898e-015 -1.51076e-014
rhumerus -30.9899 -14.4998 -78.5159
rradius 28.6582
rwrist 10.6309
rhand -13.5237 8.05046
rfingers 7.12502
rthumb 12.5883 -21.5503
lclavicle 6.70898e-015 -1.51076e-014
lhumerus -29.2443 12.7775 83.2516
lradius 21.9971
lwrist -16.0319
lhand -12.5112 28.2744
lfingers 7.12502
lthumb 13.5644 417.813
rfemur -21.0215 -3.91387 17.2945
rtibia 68.325
rfoot -1.20928 -8.74465
rtoes 3.86184
lfemur -9.91083 -0.466232 -26.7959
ltibia 24.1815
lfoot -10.7621 1.6753
ltoes 4.09274
10
root 1.75811 17.5886 -26.6849 -0.661417 -2.93949 3.41888
lowerback 7.21961 0.216637 -3.56414
upperback 0.701631 0.0577943 1.55165
thorax -3.32922 0.0872062 3.60933
lowerneck -14.274 -2.63139 -8.4126
upperneck 17.8978 -2.47773 3.84133
head 8.05672 -1.37286 2.39228
rclavicle -3.27995e-015 1.51076e-014
rhumerus -31.2295 -14.3115 -78.5493
rradius 28.8703
rwrist 10.2399
rhand -14.4551 8.02985
rfingers 7.12502
rthumb 11.6902 -21.624
lclavicle -3.27995e-015 1.51076e-014
lhumerus -29.0392 12.3234 83.3804
lradius 22.3678
lwrist -15.9831
lhand -12.1453 28.6273
lfingers 7.12502
lthumb 13.9169 418.142
rfemur -21.9635 -4.48016 17.0711
rtibia 68.1329
rfoot -2.6667 -8.86361
rtoes 1.80274
lfemur -9.5056 -0.71608 -27.0854
ltibia 24.6467
lfoot -11.3242 1.72417
ltoes 3.6136
